# xmcd
#
# Track frame offsets:
#	150
#	12685
#	26033
#	37138
#	49252
#	62023
#	73196
#	84591
#	96075
#	107298
#	121994
#	137500
#	151901
#	161813
#	172437
#	183883
#	197751
#	210420
#	223147
#	233372
#	247328
#	258315
#	272403
#	281763
#	292831
#	307233
#	320723
#
# Disc length: 4520 seconds
# Revision: 0
# Processed by: cddbd v1.5.2PL0 Copyright (c) Steve Scherf et al.
# Submitted via: dBpowerAMP V12.0
#
DISCID=9a11a61b
DTITLE=Bo Diddley - The Bo Diddley Collection: 1955-1962, Disc 1
DYEAR=2015
DGENRE=Soul
TTITLE0=Bo Diddley
TTITLE1=I'm a Man
TTITLE2=Diddley Daddy
TTITLE3=She's Fine, She's Mine
TTITLE4=Pretty Thing
TTITLE5=Bring It to Jerome
TTITLE6=Diddy Wah Diddy
TTITLE7=I'm Looking for a Woman
TTITLE8=Who Do You Love
TTITLE9=I'm Bad
TTITLE10=Cops and Robbers
TTITLE11=Down Home Special
TTITLE12=Hey Bo Diddley
TTITLE13=Mona
TTITLE14=Say Boss Man
TTITLE15=Before You Accuse Me
TTITLE16=Hush Your Mouth
TTITLE17=Dearest Darling
TTITLE18=Willie and Lillie
TTITLE19=Bo Meets the Monster
TTITLE20=I'm Sorry
TTITLE21=Oh Yea
TTITLE22=Crackin' Up
TTITLE23=The Great Grandfather
TTITLE24=Say Man
TTITLE25=The Clock Strikes Twelve
TTITLE26=She's Alright
EXTD=
EXTT0=
EXTT1=
EXTT2=
EXTT3=
EXTT4=
EXTT5=
EXTT6=
EXTT7=
EXTT8=
EXTT9=
EXTT10=
EXTT11=
EXTT12=
EXTT13=
EXTT14=
EXTT15=
EXTT16=
EXTT17=
EXTT18=
EXTT19=
EXTT20=
EXTT21=
EXTT22=
EXTT23=
EXTT24=
EXTT25=
EXTT26=
PLAYORDER=
